<svg width="20" height="21" viewBox="0 0 20 21" fill="none" xmlns="http://www.w3.org/2000/svg">
<path d="M19.3117 6.44062C19.1727 6.3006 19.0073 6.18956 18.825 6.11392C18.6428 6.03829 18.4473 5.99957 18.25 6H15.25V5.25C15.25 3.85761 14.6969 2.52226 13.7123 1.53769C12.7277 0.553123 11.3924 0 10 0C8.60761 0 7.27226 0.553123 6.28769 1.53769C5.30312 2.52226 4.75 3.85761 4.75 5.25V6H1.75C1.35218 6 0.970644 6.15804 0.68934 6.43934C0.408035 6.72064 0.25 7.10218 0.25 7.5V17.625C0.25 19.4531 1.79688 21 3.625 21H16.375C17.2593 21.0003 18.1086 20.6545 18.7413 20.0367C19.0596 19.733 19.3132 19.3679 19.4865 18.9634C19.6599 18.559 19.7495 18.1236 19.75 17.6836V7.5C19.7506 7.30321 19.7122 7.10826 19.637 6.92642C19.5617 6.74458 19.4512 6.57946 19.3117 6.44062ZM6.25 5.25C6.25 4.25544 6.64509 3.30161 7.34835 2.59835C8.05161 1.89509 9.00544 1.5 10 1.5C10.9946 1.5 11.9484 1.89509 12.6517 2.59835C13.3549 3.30161 13.75 4.25544 13.75 5.25V6H6.25V5.25ZM15.25 9.75C15.25 11.1424 14.6969 12.4777 13.7123 13.4623C12.7277 14.4469 11.3924 15 10 15C8.60761 15 7.27226 14.4469 6.28769 13.4623C5.30312 12.4777 4.75 11.1424 4.75 9.75V9C4.75 8.80109 4.82902 8.61032 4.96967 8.46967C5.11032 8.32902 5.30109 8.25 5.5 8.25C5.69891 8.25 5.88968 8.32902 6.03033 8.46967C6.17098 8.61032 6.25 8.80109 6.25 9V9.75C6.25 10.7446 6.64509 11.6984 7.34835 12.4017C8.05161 13.1049 9.00544 13.5 10 13.5C10.9946 13.5 11.9484 13.1049 12.6517 12.4017C13.3549 11.6984 13.75 10.7446 13.75 9.75V9C13.75 8.80109 13.829 8.61032 13.9697 8.46967C14.1103 8.32902 14.3011 8.25 14.5 8.25C14.6989 8.25 14.8897 8.32902 15.0303 8.46967C15.171 8.61032 15.25 8.80109 15.25 9V9.75Z" fill="white"/>
</svg>
