<svg width="19" height="18" viewBox="0 0 19 18" fill="none" xmlns="http://www.w3.org/2000/svg">
<path d="M6.32921 15.75C6.95053 15.75 7.45421 15.2463 7.45421 14.625C7.45421 14.0037 6.95053 13.5 6.32921 13.5C5.70789 13.5 5.20421 14.0037 5.20421 14.625C5.20421 15.2463 5.70789 15.75 6.32921 15.75Z" fill="white"/>
<path d="M14.2042 15.75C14.8255 15.75 15.3292 15.2463 15.3292 14.625C15.3292 14.0037 14.8255 13.5 14.2042 13.5C13.5829 13.5 13.0792 14.0037 13.0792 14.625C13.0792 15.2463 13.5829 15.75 14.2042 15.75Z" fill="white"/>
<path d="M16.2011 4.24617C16.1221 4.14951 16.0225 4.07166 15.9096 4.01827C15.7968 3.96487 15.6734 3.93729 15.5486 3.9375H4.84878L4.63327 2.71477C4.61029 2.58452 4.54215 2.46654 4.44083 2.38154C4.3395 2.29655 4.21146 2.24997 4.07921 2.25H1.82921C1.68002 2.25 1.53695 2.30926 1.43146 2.41475C1.32597 2.52024 1.26671 2.66332 1.26671 2.8125C1.26671 2.96168 1.32597 3.10476 1.43146 3.21025C1.53695 3.31574 1.68002 3.375 1.82921 3.375H3.60741L5.21265 12.4727C5.23563 12.603 5.30376 12.721 5.40509 12.806C5.50642 12.891 5.63445 12.9375 5.76671 12.9375H14.7667C14.9159 12.9375 15.059 12.8782 15.1645 12.7727C15.2699 12.6673 15.3292 12.5242 15.3292 12.375C15.3292 12.2258 15.2699 12.0827 15.1645 11.9773C15.059 11.8718 14.9159 11.8125 14.7667 11.8125H6.23851L6.04022 10.6875H14.5361C14.7312 10.6873 14.9202 10.6196 15.0711 10.496C15.222 10.3725 15.3256 10.2005 15.3644 10.0093L16.3769 4.94684C16.4013 4.82432 16.3982 4.69791 16.3678 4.57674C16.3374 4.45557 16.2804 4.34266 16.2011 4.24617Z" fill="white"/>
</svg>
